<svg width="40" height="50" viewBox="0 0 40 50" fill="none" xmlns="http://www.w3.org/2000/svg">
<path d="M24.6792 15.2548C25.385 14.3872 26.0908 13.5196 26.8032 12.652C26.4037 12.3173 23.7071 10.1517 20.2581 10.8963C16.909 11.6204 14.8782 14.6536 14.3056 17.3726C13.5732 20.8362 15.5507 23.9035 15.9169 24.4706C14.4654 24.8121 10.6701 25.5363 8.06008 28.8086C4.74425 32.9622 4.17163 39.0149 6.46875 44.4869C4.77754 42.8815 2.15417 39.8415 0.749264 35.2849C-1.02185 29.5327 0.469614 20.3511 3.93193 16.6416C10.8299 9.25673 3.93194 16.6416 10.8299 9.25673C19.9052 -0.0614846 10.8299 9.25673 19.9651 0C22.9015 3.163 25.3317 5.62918 27.0363 7.32341C28.6143 8.88783 29.4666 9.93305 30.0991 10.9305C30.6517 11.8049 33.0354 15.5827 31.1578 20.0301C30.0591 22.6397 28.1482 25.3518 23.8469 25.3518C20.8107 25.3518 17.2885 22.4279 17.3085 19.2376C17.3218 17.1813 18.6668 14.517 21.0238 14.0935C22.8615 13.7792 24.3596 14.9816 24.6792 15.2548Z" fill="#AAA9D1"/>
<path d="M26.1374 28.508C26.6034 29.0067 27.2693 29.847 27.7753 31.0493C28.3013 32.3131 28.4145 33.4335 28.4345 34.1372C29.9193 33.577 32.6891 32.3063 35.2393 29.5532C37.6695 26.9299 38.7682 24.1836 39.2609 22.6534C39.0811 21.5808 38.635 19.8183 37.4032 18.0216C36.6908 16.9832 35.9118 16.2249 35.2792 15.7057C35.3059 16.6621 35.3391 21.5945 31.6571 25.3313C29.6263 27.3944 27.3492 28.1869 26.1374 28.508Z" fill="#B7B7D5"/>
<path d="M40 28.4192C39.1078 29.9768 37.3367 32.6069 34.2206 34.8067C31.7704 36.535 29.42 37.3412 27.8553 37.7442C26.7567 41.1805 23.9602 43.6398 20.7242 43.9746C18.0343 44.2615 14.6652 43.1206 13.1804 40.2856C12.408 38.8099 12.388 37.348 12.4413 36.535C13.4733 36.535 14.5054 36.535 15.5374 36.535C16.0634 38.8714 17.1554 40.7091 19.8387 40.7091C22.6884 40.7091 25.0521 37.7237 25.0521 35.1687C25.0521 31.4455 22.7816 27.6335 17.4483 27.6335C12.2349 27.6335 8.31314 32.4156 8.31314 37.3207C8.31314 46.0992 15.1712 50 21.0438 50C29.3933 49.9932 40 42.8815 40 28.4192Z" fill="#7271B4"/>
</svg>
