<svg width="39" height="57" viewBox="0 0 39 57" fill="none" xmlns="http://www.w3.org/2000/svg">
<path d="M39 38.5958C39 38.5958 35.517 35.0551 34.6304 31.1568L34.8642 29.957C35.6826 25.1576 37.8114 14.8928 32.5162 7.3313C31.8732 6.4155 31.2058 5.59765 30.5239 4.86305L29.9344 6.13145C24.9267 1.0921 19.5 0 19.5 0C19.5 0 14.0782 1.0921 9.06558 6.13145L8.47614 4.86305C7.79415 5.59765 7.12678 6.4155 6.48376 7.3313C1.18861 14.8977 3.32227 25.1576 4.13578 29.957L4.3696 31.1568C3.48301 35.0551 0 38.5958 0 38.5958C0 38.5958 2.79128 42.6068 7.28753 46.1181L7.59443 47.6804L14.0295 50.3935L17.9168 57L15.1353 25.9509C15.1353 25.9509 12.1784 33.7916 7.65776 22.611C7.29728 21.7246 7.1414 20.3582 7.14627 19.0506C7.15114 18.2181 8.08156 17.743 8.74893 18.2328C10.3467 19.4081 13.2208 21.1026 17.0595 21.6903C17.7317 21.7931 18.7742 31.6172 19.4951 31.6172C20.2161 31.6172 21.2586 21.7931 21.9308 21.6903C25.7694 21.1026 28.6435 19.4032 30.2413 18.2328C30.9087 17.743 31.8391 18.2181 31.844 19.0506C31.8537 20.3582 31.693 21.7197 31.3325 22.611C26.8119 33.7916 23.855 25.9509 23.855 25.9509L21.0735 57L24.9608 50.3935L31.3958 47.6804L31.7027 46.1181C36.2087 42.6068 39 38.5958 39 38.5958Z" fill="white"/>
</svg>
