<svg width="52" height="50" viewBox="0 0 52 50" fill="none" xmlns="http://www.w3.org/2000/svg">
<path d="M30.4122 29.8749V29.8669L29.9826 25L29.6563 21.432H22.3596L21.6037 29.8669V29.8749L21.3411 32.6892L26.0119 35.5196L30.6828 32.6892L30.4122 29.8749ZM27.1816 29.7547C27.1816 30.4201 26.6485 30.9413 26.004 30.9413C25.3595 30.9413 24.8263 30.4201 24.8263 29.7547V27.3733C24.8263 26.7158 25.3595 26.1867 26.004 26.1867C26.6485 26.1867 27.1816 26.7239 27.1816 27.3733V29.7547Z" fill="#FF3030"/>
<path d="M19.9805 21.432H4.72661C4.07413 21.432 3.54897 20.8948 3.54897 20.2453V9.52534C3.54897 6.89545 4.38446 4.35375 5.84857 2.15683C2.29968 4.50609 0.00802612 8.53913 0.00802612 13.0933V23.8133H19.7656L19.9805 21.432Z" fill="#FF3030"/>
<path d="M46.0958 30.9493V45.2454H5.91219V30.9493H19.129L18.9221 33.2264C18.8823 33.6835 19.1051 34.1244 19.4871 34.3489L25.3992 37.9169C25.5823 38.0372 25.7971 38.0933 26.004 38.0933C26.2109 38.0933 26.4257 38.0372 26.6087 37.9169L32.5209 34.3489C32.9108 34.1164 33.1256 33.6754 33.0859 33.2264L32.879 30.9493H46.0958Z" fill="#FF3030"/>
<path d="M46.0958 9.52534V19.0507H5.91219V9.52534C5.91219 5.81303 7.80598 2.41341 11.1002 0.152343C11.7289 0.0561277 12.3654 0 13.01 0H39.006C39.6346 0 40.2632 0.0561277 40.8998 0.152343C44.1941 2.40539 46.0958 5.79699 46.0958 9.52534Z" fill="#FF3030"/>
<path d="M46.1595 2.15683C47.6236 4.35375 48.4591 6.89545 48.4591 9.52534V20.2453C48.4591 20.9028 47.9259 21.432 47.2814 21.432H32.0275L32.2424 23.8133H52V13.0933C51.992 8.53913 49.7083 4.50609 46.1595 2.15683Z" fill="#FF3030"/>
<path d="M32.6721 28.568H47.2735C47.9259 28.568 48.4511 29.1052 48.4511 29.7546V46.424C48.4511 47.0815 47.918 47.6106 47.2735 47.6106H4.72655C4.07406 47.6106 3.54891 47.0734 3.54891 46.424V29.7546C3.54891 29.0972 4.08202 28.568 4.72655 28.568H19.3279L19.5428 26.1866H0V48.8133C0 49.4708 0.533138 50 1.17767 50H50.8064C51.4589 50 51.9841 49.4628 51.9841 48.8133V26.1866H32.4413L32.6721 28.568Z" fill="#FF3030"/>
</svg>
