<svg width="50" height="50" viewBox="0 0 50 50" fill="none" xmlns="http://www.w3.org/2000/svg">
<path d="M25.0081 0C14.5709 0 11.5183 0.0107715 10.925 0.0599998C8.7831 0.238091 7.45029 0.575433 5.99823 1.29855C4.87923 1.85439 3.99669 2.49866 3.1257 3.40182C1.53947 5.04888 0.578109 7.0752 0.230091 9.48387C0.0609001 10.6532 0.0116713 10.8917 0.00167447 16.8645C-0.00216175 18.8554 0.00167447 21.4757 0.00167447 24.9902C0.00167447 35.4218 0.013202 38.4721 0.0632051 39.0645C0.236251 41.1492 0.563104 42.4609 1.25529 43.8956C2.57812 46.642 5.10455 48.7037 8.08092 49.473C9.11151 49.7384 10.2498 49.8846 11.711 49.9538C12.3301 49.9807 18.6405 50 24.9547 50C31.2689 50 37.5831 49.9923 38.1868 49.9615C39.8788 49.8819 40.8613 49.75 41.9476 49.4692C44.9432 48.696 47.4235 46.6651 48.7733 43.8802C49.452 42.4801 49.7962 41.1185 49.9519 39.1425C49.9857 38.7117 50 31.8431 50 24.9837C50 18.1231 49.9846 11.2671 49.9507 10.8363C49.7931 8.82843 49.4489 7.47832 48.7483 6.05127C48.1734 4.88309 47.535 4.0107 46.6083 3.11873C44.9544 1.53859 42.9317 0.576964 40.5214 0.229247C39.3535 0.060378 39.1209 0.0103748 33.1451 0H25.0081Z" fill="url(#paint0_radial_3_261)"/>
<path d="M25.0081 0C14.5709 0 11.5183 0.0107715 10.925 0.0599998C8.7831 0.238091 7.45029 0.575433 5.99823 1.29855C4.87923 1.85439 3.99669 2.49866 3.1257 3.40182C1.53947 5.04888 0.578109 7.0752 0.230091 9.48387C0.0609001 10.6532 0.0116713 10.8917 0.00167447 16.8645C-0.00216175 18.8554 0.00167447 21.4757 0.00167447 24.9902C0.00167447 35.4218 0.013202 38.4721 0.0632051 39.0645C0.236251 41.1492 0.563104 42.4609 1.25529 43.8956C2.57812 46.642 5.10455 48.7037 8.08092 49.473C9.11151 49.7384 10.2498 49.8846 11.711 49.9538C12.3301 49.9807 18.6405 50 24.9547 50C31.2689 50 37.5831 49.9923 38.1868 49.9615C39.8788 49.8819 40.8613 49.75 41.9476 49.4692C44.9432 48.696 47.4235 46.6651 48.7733 43.8802C49.452 42.4801 49.7962 41.1185 49.9519 39.1425C49.9857 38.7117 50 31.8431 50 24.9837C50 18.1231 49.9846 11.2671 49.9507 10.8363C49.7931 8.82843 49.4489 7.47832 48.7483 6.05127C48.1734 4.88309 47.535 4.0107 46.6083 3.11873C44.9544 1.53859 42.9317 0.576964 40.5214 0.229247C39.3535 0.060378 39.1209 0.0103748 33.1451 0H25.0081Z" fill="url(#paint1_radial_3_261)"/>
<path d="M25.0081 0C14.5709 0 11.5183 0.0107715 10.925 0.0599998C8.7831 0.238091 7.45029 0.575433 5.99823 1.29855C4.87923 1.85439 3.99669 2.49866 3.1257 3.40182C1.53947 5.04888 0.578109 7.0752 0.230091 9.48387C0.0609001 10.6532 0.0116713 10.8917 0.00167447 16.8645C-0.00216175 18.8554 0.00167447 21.4757 0.00167447 24.9902C0.00167447 35.4218 0.013202 38.4721 0.0632051 39.0645C0.236251 41.1492 0.563104 42.4609 1.25529 43.8956C2.57812 46.642 5.10455 48.7037 8.08092 49.473C9.11151 49.7384 10.2498 49.8846 11.711 49.9538C12.3301 49.9807 18.6405 50 24.9547 50C31.2689 50 37.5831 49.9923 38.1868 49.9615C39.8788 49.8819 40.8613 49.75 41.9476 49.4692C44.9432 48.696 47.4235 46.6651 48.7733 43.8802C49.452 42.4801 49.7962 41.1185 49.9519 39.1425C49.9857 38.7117 50 31.8431 50 24.9837C50 18.1231 49.9846 11.2671 49.9507 10.8363C49.7931 8.82843 49.4489 7.47832 48.7483 6.05127C48.1734 4.88309 47.535 4.0107 46.6083 3.11873C44.9544 1.53859 42.9317 0.576964 40.5214 0.229247C39.3535 0.060378 39.1209 0.0103748 33.1451 0H25.0081Z" fill="url(#paint2_radial_3_261)"/>
<path d="M25.0081 0C14.5709 0 11.5183 0.0107715 10.925 0.0599998C8.7831 0.238091 7.45029 0.575433 5.99823 1.29855C4.87923 1.85439 3.99669 2.49866 3.1257 3.40182C1.53947 5.04888 0.578109 7.0752 0.230091 9.48387C0.0609001 10.6532 0.0116713 10.8917 0.00167447 16.8645C-0.00216175 18.8554 0.00167447 21.4757 0.00167447 24.9902C0.00167447 35.4218 0.013202 38.4721 0.0632051 39.0645C0.236251 41.1492 0.563104 42.4609 1.25529 43.8956C2.57812 46.642 5.10455 48.7037 8.08092 49.473C9.11151 49.7384 10.2498 49.8846 11.711 49.9538C12.3301 49.9807 18.6405 50 24.9547 50C31.2689 50 37.5831 49.9923 38.1868 49.9615C39.8788 49.8819 40.8613 49.75 41.9476 49.4692C44.9432 48.696 47.4235 46.6651 48.7733 43.8802C49.452 42.4801 49.7962 41.1185 49.9519 39.1425C49.9857 38.7117 50 31.8431 50 24.9837C50 18.1231 49.9846 11.2671 49.9507 10.8363C49.7931 8.82843 49.4489 7.47832 48.7483 6.05127C48.1734 4.88309 47.535 4.0107 46.6083 3.11873C44.9544 1.53859 42.9317 0.576964 40.5214 0.229247C39.3535 0.060378 39.1209 0.0103748 33.1451 0H25.0081Z" fill="url(#paint3_radial_3_261)"/>
<path d="M25.0101 6.42004C19.9613 6.42004 19.3277 6.4421 17.3447 6.53228C15.3656 6.62283 14.0147 6.93593 12.8327 7.39533C11.61 7.86979 10.5728 8.50449 9.53946 9.53742C8.50538 10.57 7.87019 11.6064 7.39382 12.8278C6.93293 14.0094 6.61921 15.3596 6.53014 17.3365C6.44146 19.318 6.41821 19.9515 6.41821 24.9966C6.41821 30.0417 6.44068 30.6729 6.53052 32.6544C6.62155 34.632 6.93487 35.9819 7.3942 37.1631C7.86942 38.3849 8.50459 39.4213 9.53829 40.4539C10.5712 41.4872 11.6084 42.1234 12.8303 42.5979C14.0131 43.0573 15.3644 43.3704 17.3431 43.461C19.3261 43.5511 19.9594 43.5732 25.0078 43.5732C30.057 43.5732 30.6887 43.5511 32.6717 43.4609C34.6508 43.3704 36.0032 43.0573 37.186 42.5979C38.4084 42.1234 39.444 41.4872 40.4769 40.4539C41.511 39.4213 42.1462 38.3849 42.6226 37.1635C43.0796 35.9819 43.3933 34.6317 43.4863 32.6548C43.5753 30.6733 43.5986 30.0417 43.5986 24.9966C43.5986 19.9515 43.5753 19.3184 43.4863 17.3369C43.3933 15.3592 43.0796 14.0094 42.6226 12.8282C42.1462 11.6064 41.511 10.57 40.4769 9.53742C39.4428 8.50409 38.4087 7.8694 37.1849 7.39531C35.9997 6.93593 34.6481 6.62283 32.669 6.53228C30.686 6.4421 30.0547 6.42004 25.0043 6.42004H25.0101ZM23.3424 9.7677C23.8374 9.76693 24.3897 9.7677 25.0101 9.7677C29.9738 9.7677 30.5621 9.7855 32.5222 9.87451C34.3347 9.95734 35.3185 10.26 35.9738 10.5142C36.8414 10.8509 37.4599 11.2534 38.1101 11.9036C38.7608 12.5538 39.1636 13.173 39.5013 14.0399C39.7558 14.694 40.059 15.677 40.1415 17.4882C40.2306 19.4465 40.25 20.0347 40.25 24.9924C40.25 29.95 40.2306 30.5382 40.1415 32.4965C40.0586 34.3077 39.7558 35.2907 39.5013 35.9448C39.1644 36.8117 38.7608 37.429 38.1101 38.0788C37.4595 38.729 36.8417 39.1314 35.9738 39.4681C35.3193 39.7236 34.3347 40.0254 32.5222 40.1083C30.5625 40.1973 29.9738 40.2166 25.0101 40.2166C20.0461 40.2166 19.4578 40.1973 17.4981 40.1083C15.6855 40.0247 14.7018 39.722 14.0461 39.4678C13.1785 39.1311 12.5588 38.7286 11.9082 38.0784C11.2575 37.4282 10.8547 36.8105 10.517 35.9432C10.2625 35.2892 9.95929 34.3062 9.8768 32.495C9.78772 30.5367 9.7699 29.9484 9.7699 24.9877C9.7699 20.027 9.78772 19.4418 9.8768 17.4836C9.95969 15.6723 10.2625 14.6893 10.517 14.0345C10.8539 13.1676 11.2575 12.5484 11.9082 11.8982C12.5588 11.248 13.1785 10.8455 14.0461 10.5081C14.7014 10.2526 15.6855 9.95076 17.4981 9.86754C19.213 9.79013 19.8776 9.76693 23.3424 9.76304L23.3424 9.7677ZM34.9335 12.8522C33.7019 12.8522 32.7027 13.8495 32.7027 15.0806C32.7027 16.3113 33.7019 17.3098 34.9335 17.3098C36.1651 17.3098 37.1644 16.3113 37.1644 15.0806C37.1644 13.8499 36.1651 12.8514 34.9335 12.8514L34.9335 12.8522ZM25.0101 15.4568C19.7378 15.4568 15.4632 19.7282 15.4632 24.9966C15.4632 30.265 19.7378 34.5345 25.0101 34.5345C30.2824 34.5345 34.5555 30.265 34.5555 24.9966C34.5555 19.7282 30.2821 15.4568 25.0097 15.4568H25.0101ZM25.0101 18.8044C28.4323 18.8044 31.2069 21.5766 31.2069 24.9966C31.2069 28.4162 28.4323 31.1888 25.0101 31.1888C21.5876 31.1888 18.8133 28.4162 18.8133 24.9966C18.8133 21.5766 21.5876 18.8044 25.0101 18.8044Z" fill="white"/>
<defs>
<radialGradient id="paint0_radial_3_261" cx="0" cy="0" r="1" gradientUnits="userSpaceOnUse" gradientTransform="translate(48.3855 23.4356) rotate(164.25) scale(31.9472 23.0164)">
<stop stop-color="#FF005F"/>
<stop offset="1" stop-color="#FC01D8"/>
</radialGradient>
<radialGradient id="paint1_radial_3_261" cx="0" cy="0" r="1" gradientUnits="userSpaceOnUse" gradientTransform="translate(13.2808 53.851) rotate(-90) scale(39.9109 42.3447)">
<stop stop-color="#FFCC00"/>
<stop offset="0.1242" stop-color="#FFCC00"/>
<stop offset="0.5672" stop-color="#FE4A05"/>
<stop offset="0.6942" stop-color="#FF0F3F"/>
<stop offset="1" stop-color="#FE0657" stop-opacity="0"/>
</radialGradient>
<radialGradient id="paint2_radial_3_261" cx="0" cy="0" r="1" gradientUnits="userSpaceOnUse" gradientTransform="translate(26.2634 49.2948) rotate(-59.8703) scale(16.5035 21.4857)">
<stop stop-color="#FFCC00"/>
<stop offset="1" stop-color="#FFCC00" stop-opacity="0"/>
</radialGradient>
<radialGradient id="paint3_radial_3_261" cx="0" cy="0" r="1" gradientUnits="userSpaceOnUse" gradientTransform="translate(6.7839 2.03599) rotate(164.274) scale(31.5928 10.7636)">
<stop stop-color="#780CFF"/>
<stop offset="1" stop-color="#820BFF" stop-opacity="0"/>
</radialGradient>
</defs>
</svg>
