<svg width="55" height="36" viewBox="0 0 55 36" fill="none" xmlns="http://www.w3.org/2000/svg">
<path d="M22.4793 7.40288C22.8674 7.10701 23.2001 6.82321 23.5635 6.58168C25.7751 5.11439 26.9024 3.01912 27.2905 0.489098C27.2967 0.434754 27.2844 0.374372 27.309 0.326066C27.3768 0.211339 27.4569 0.108688 27.537 0C27.5986 0.108688 27.691 0.211339 27.7218 0.326066C27.9004 1.00839 28.0421 1.70278 28.2269 2.37907C28.6273 3.80409 29.4529 4.96343 30.611 5.89332C31.2394 6.3945 31.8739 6.8836 32.5454 7.40892C32.3297 7.69272 32.1141 7.96444 31.917 8.23616C30.9005 9.62496 29.8841 11.0319 29.5822 12.7467C29.268 14.5401 29.6685 16.2187 30.9745 17.5834C32.0649 18.7186 33.6604 18.8454 34.9418 17.9155C36.334 16.9071 36.9131 15.4639 37.0363 13.8336C37.178 12.0221 36.6174 10.3677 35.7488 8.79772C35.6256 8.58034 35.4962 8.36296 35.3484 8.09728C35.7118 8.03086 36.0322 7.98859 36.3463 7.91614C37.64 7.61422 38.6441 6.87756 39.4696 5.88125C40.6401 4.4683 41.3301 2.80778 42.0139 1.14727C42.0878 0.96612 42.1556 0.78497 42.3281 0.609861C42.3281 0.863468 42.3219 1.11707 42.3281 1.37672C42.3773 2.66286 42.3958 3.94901 42.4821 5.22912C42.5806 6.5998 43.2213 7.7531 44.1515 8.75545C44.398 9.02113 44.6998 9.23851 45.0325 9.52231C44.7306 9.7578 44.515 9.92083 44.3055 10.0839C43.246 10.9111 42.2603 11.8108 41.5334 12.946C41.1145 13.6042 40.8742 14.3106 40.8988 15.1016C40.9235 15.8625 40.8742 16.6233 40.905 17.3841C40.9913 19.3465 42.8394 20.4394 44.6505 19.5699C46.2399 18.8031 47.0716 17.4203 47.4535 15.79C47.8231 14.1838 47.4597 12.6682 46.5295 11.2191C46.8313 11.1043 47.1147 10.9896 47.4042 10.893C49.1415 10.3133 50.7062 9.48004 52.043 8.22409C52.9486 7.37873 53.9404 6.61791 55 5.88729C51.8705 11.7565 48.741 17.6256 45.5808 23.5491C44.1269 22.5709 42.5067 22.0517 40.8372 21.7981C38.3238 21.4116 35.7919 21.0191 33.26 20.9225C29.422 20.7776 25.578 20.8078 21.7339 20.9104C18.5182 20.995 15.3209 21.3331 12.2284 22.2932C11.2674 22.5891 10.3618 23.0359 9.3638 23.4405C6.2836 17.6619 3.1418 11.7746 0 5.88729C2.71673 7.84368 4.93448 10.4945 8.33502 11.0862C8.027 12.1188 7.63273 13.0245 7.4972 13.9604C7.18918 16.0617 8.01468 17.7887 9.64102 19.1533C10.2817 19.6907 11.0456 19.9322 11.908 19.8235C13.2017 19.6605 14.0026 18.8876 14.0703 17.6075C14.1258 16.581 14.1135 15.5424 14.0642 14.5159C14.0211 13.6706 13.5898 12.94 13.0292 12.3361C12.1237 11.364 11.1441 10.4643 10.1523 9.49816C10.14 9.51023 10.1955 9.41966 10.2755 9.35324C11.8711 7.97652 12.6103 6.21939 12.635 4.16035C12.6473 2.96478 12.635 1.76921 12.7459 0.543443C12.8198 0.712513 12.8814 0.881584 12.9676 1.03858C13.7007 2.49379 14.3414 4.00335 15.21 5.38611C16.1895 6.95002 17.6742 7.91613 19.6886 8.05501C19.5716 8.26635 19.4792 8.42939 19.3868 8.59242C18.2471 10.6092 17.5818 12.7165 18.1855 15.0473C18.4504 16.0678 18.9432 16.9675 19.7625 17.6739C21.2102 18.9238 23.1138 18.8031 24.2966 17.2996C25.5656 15.6874 25.9537 13.8215 25.196 11.9255C24.6847 10.6454 23.853 9.48608 23.1446 8.28447C22.9783 7.9886 22.7319 7.73499 22.4793 7.40288Z" fill="#FDCE12"/>
<path d="M27.8758 35.9759C22.8674 36.0544 17.8775 35.7706 12.9676 34.6776C12.5179 34.575 12.0744 34.4603 11.6308 34.3335C10.7745 34.0859 10.1339 33.5666 9.70264 32.8058C9.16052 31.8517 9.27757 31.0305 10.2817 30.5535C11.1996 30.1127 11.3413 29.5089 11.2427 28.6696C11.2058 28.3496 11.2119 28.0175 11.2427 27.6914C11.2982 27.0211 11.2612 26.4656 10.4973 26.1094C10.0168 25.886 9.74575 25.3727 9.77039 24.793C9.79503 24.2436 9.99834 23.8571 10.5897 23.6518C13.3311 22.6857 16.1649 22.1302 19.0418 21.7679C22.9721 21.2788 26.9209 21.1399 30.8759 21.3392C35.3853 21.5626 39.8454 22.1 44.1454 23.5492C44.669 23.7243 45.1495 23.9114 45.2481 24.5394C45.3528 25.2278 45.1187 25.8437 44.5335 26.1214C43.7634 26.4898 43.7634 27.0453 43.7943 27.7035C43.8251 28.3375 43.8127 28.9715 43.7943 29.6055C43.7881 29.8893 43.8559 30.0523 44.1454 30.1852C46.3139 31.1573 45.8149 32.5944 44.5458 33.7296C43.7943 34.3999 42.7963 34.5569 41.8476 34.7863C38.8228 35.5109 35.7426 35.837 32.6439 35.9759C31.0546 36.0302 29.4652 35.9759 27.8758 35.9759ZM13.2757 33.4398C18.4381 35.5834 38.3731 35.6921 42.2726 33.6209C38.3053 31.6585 18.2101 31.5196 13.2757 33.4398ZM29.2003 26.5683C29.2064 25.6444 28.4672 24.9138 27.5247 24.9017C26.6191 24.8957 25.8552 25.6203 25.8367 26.5019C25.8182 27.4317 26.539 28.1684 27.4877 28.1805C28.4487 28.1986 29.1941 27.4921 29.2003 26.5683ZM33.9931 27.7337C34.5783 27.7337 35.0526 27.2687 35.0465 26.7011C35.0403 26.1335 34.5537 25.6565 33.9869 25.6625C33.414 25.6686 32.9335 26.1456 32.9335 26.7072C32.9335 27.2808 33.4078 27.7337 33.9931 27.7337ZM21.0316 25.6625C20.4648 25.6746 19.972 26.1758 19.9843 26.7253C19.9967 27.2868 20.4833 27.7457 21.0686 27.7397C21.6538 27.7337 22.1097 27.2687 22.0973 26.689C22.085 26.1094 21.6045 25.6505 21.0316 25.6625Z" fill="#FDCE12"/>
</svg>
