<svg width="50" height="41" viewBox="0 0 50 41" fill="none" xmlns="http://www.w3.org/2000/svg">
<path d="M49.8612 0.852183C49.6529 0.301269 49.4446 0.163558 49.1669 0.0946935C48.4032 -0.180763 47.2229 0.232388 47.2229 0.232388C47.2229 0.232388 3.41388 15.8646 0.914478 17.5862C0.359054 17.9305 0.22019 18.206 0.0813344 18.4126C-0.335233 19.6521 0.983889 20.203 0.983889 20.203L12.3007 23.8528C12.3007 23.8528 12.7172 23.9217 12.8561 23.8528C15.4249 22.269 38.6833 7.66975 40.0024 7.1877C40.2107 7.11883 40.3495 7.18771 40.3495 7.32543C39.7941 9.18477 19.5906 27.0206 19.5906 27.0206C19.5906 27.0206 19.5211 27.0894 19.4517 27.2272L18.4103 38.3143C18.4103 38.3143 17.9937 41.6887 21.3957 38.3143C23.8257 35.9041 26.1862 33.907 27.2971 32.9429C31.185 35.6286 35.3507 38.5209 37.1558 40.1048C38.0584 40.8623 38.8221 41 39.447 41C41.1827 40.9311 41.6687 39.0718 41.6687 39.0718C41.6687 39.0718 49.6529 7.18769 49.9306 2.91811C49.9306 2.50492 50 2.22945 50 1.95399C49.9306 1.40308 49.9306 1.05878 49.8612 0.852183Z" fill="#25A3E1"/>
</svg>
