<svg width="40" height="50" viewBox="0 0 40 50" fill="none" xmlns="http://www.w3.org/2000/svg">
<path d="M35.4312 42.1763C33.2859 43.4252 29.9884 44.8856 26.0288 44.6673C22.3738 44.4693 20.7714 42.9884 16.8449 42.4424C14.4612 42.1148 10.932 42.0875 6.38304 43.7596C8.09137 45.6227 10.6075 47.7042 14.0308 48.9258C19.904 51.0278 26.6777 49.9973 31.5709 46.2506C33.4514 44.8106 34.6963 43.2341 35.4312 42.1763Z" fill="#258BB7"/>
<path d="M39.4703 33.1541C36.6893 38.102 33.5441 39.6512 31.8689 40.2312C28.8628 41.2618 26.7704 42.1831 19.7385 39.6853C15.567 38.2043 12.7926 38.0542 10.0579 38.7162C6.69426 39.5283 5.55538 40.0879 3.78083 41.1867C2.69492 39.6853 1.23159 37.2421 0.483366 33.9321C0.139052 32.4239 0.0198643 31.0521 0 29.8987C0.933621 29.073 4.11191 26.4728 8.87933 26.3158C12.6469 26.193 15.1167 26.7253 18.9042 30.3492C21.7779 33.1063 23.3074 34.0345 25.6382 34.8534C28.5714 35.8703 34.2394 36.0068 39.4703 33.1541Z" fill="#46AECD"/>
<path d="M40 28.6635C37.9606 30.2605 34.8552 32.0281 31.0743 31.9735C27.512 31.9257 25.0554 31.4275 21.3607 28.254C18.8114 26.0633 17.9308 24.8076 15.2094 23.8999C12.3291 22.9376 7.99865 21.9139 0.443604 25.531C0.933589 23.2038 1.93343 19.8324 4.22444 16.461C6.17114 13.6015 8.02514 12.2502 11.21 9.29516C13.4348 7.23412 16.5602 4.14938 20.0894 0C24.3403 4.68853 28.0285 8.25099 30.6837 10.701C33.6103 13.3968 35.2458 14.7071 36.835 17.28C39.3511 21.3475 39.9205 25.6334 40 28.6635Z" fill="#89CBE1"/>
</svg>
