<svg width="37" height="47" viewBox="0 0 37 47" fill="none" xmlns="http://www.w3.org/2000/svg">
<path d="M2.41287 18.2194C2.1905 17.6836 1.76223 16.4496 1.95715 14.8679C2.17403 13.1124 3.03606 11.9525 3.39845 11.5164C3.06352 11.106 2.53093 10.3508 2.21521 9.26216C1.88852 8.145 1.93244 7.18743 1.99559 6.6488C1.61399 7.10764 -0.132041 9.29921 0.00797015 12.5766C0.142491 15.7827 1.9846 17.7805 2.41287 18.2194Z" fill="white"/>
<path d="M14.0942 18.3704C14.517 17.4357 14.9617 15.9908 14.6405 14.3749C14.2864 12.5937 13.1526 11.3483 12.1972 10.3024C11.6207 9.6697 11.456 9.54146 10.6131 8.72354C9.36128 7.51233 8.39492 6.55762 7.98862 5.71975C7.77173 5.27231 6.99755 3.67352 7.47798 1.79829C7.68937 0.968966 8.07646 0.364787 8.35374 0C10.3606 2.08613 11.9391 3.69632 12.9824 4.75363C14.1107 5.89644 14.6323 6.53197 15.1869 7.34704C15.6481 8.02531 16.6666 9.87775 16.6282 12.3458C16.576 15.6345 14.6131 17.8261 14.0942 18.3704Z" fill="white"/>
<path d="M5.14449 11.4594C4.89466 11.6874 3.26119 13.2178 3.30512 15.626C3.34355 17.7948 4.7272 19.8894 6.85757 20.5677C9.3366 21.3571 11.7964 19.9008 12.8177 17.9544C12.911 17.7748 13.7868 16.0478 13.2185 14.1298C12.9632 13.2606 12.3867 12.6222 11.2501 11.3825C9.37778 9.34196 8.73537 9.21372 7.49449 7.52088C6.57755 6.26408 6.28654 5.45755 6.14653 4.94457C5.85827 3.90436 5.872 2.98954 5.92691 2.38821C5.62492 2.58201 3.70868 3.86446 3.35728 6.30967C3.08 8.22481 3.92831 9.7438 4.19461 10.2112C4.51855 10.7698 4.8727 11.1802 5.14449 11.4594Z" fill="white"/>
<path d="M30.6307 31.7014C30.9241 31.3408 31.2175 30.9801 31.5137 30.6194C31.3476 30.4802 30.2266 29.5799 28.7927 29.8895C27.4004 30.1905 26.5561 31.4515 26.3181 32.5819C26.0136 34.0218 26.8357 35.297 26.9879 35.5327C26.3845 35.6747 24.8067 35.9758 23.7216 37.3362C22.3431 39.0629 22.1051 41.5792 23.06 43.8541C22.357 43.1867 21.2663 41.9229 20.6823 40.0286C19.946 37.6372 20.566 33.8201 22.0054 32.278C24.8731 29.2079 22.0054 32.278 24.8731 29.2079C28.646 25.334 24.8731 29.2079 28.6709 25.3596C29.8916 26.6745 30.902 27.6998 31.6106 28.4041C32.2666 29.0545 32.6209 29.489 32.8839 29.9037C33.1136 30.2672 34.1046 31.8378 33.324 33.6867C32.8673 34.7716 32.0728 35.8991 30.2847 35.8991C29.0224 35.8991 27.5581 34.6835 27.5664 33.3572C27.572 32.5024 28.1311 31.3947 29.111 31.2186C29.875 31.088 30.4978 31.5878 30.6307 31.7014Z" fill="white"/>
<path d="M31.2369 37.2112C31.4306 37.4185 31.7074 37.7678 31.9178 38.2677C32.1365 38.7931 32.1836 39.2589 32.1919 39.5514C32.8091 39.3185 33.9606 38.7903 35.0208 37.6457C36.0312 36.5551 36.4879 35.4134 36.6927 34.7772C36.618 34.3314 36.4325 33.5986 35.9204 32.8517C35.6243 32.42 35.3004 32.1047 35.0374 31.8889C35.0485 32.2865 35.0623 34.337 33.5316 35.8906C32.6873 36.7483 31.7407 37.0777 31.2369 37.2112Z" fill="white"/>
<path d="M37 37.1743C36.6291 37.8218 35.8928 38.9152 34.5973 39.8297C33.5787 40.5483 32.6016 40.8834 31.9511 41.051C31.4943 42.4795 30.3318 43.502 28.9865 43.6411C27.8682 43.7604 26.4675 43.2861 25.8503 42.1075C25.5292 41.494 25.5209 40.8862 25.543 40.5483C25.9721 40.5483 26.4011 40.5483 26.8302 40.5483C27.0488 41.5196 27.5028 42.2836 28.6183 42.2836C29.8031 42.2836 30.7857 41.0425 30.7857 39.9803C30.7857 38.4324 29.8418 36.8477 27.6246 36.8477C25.4572 36.8477 23.8268 38.8357 23.8268 40.8749C23.8268 44.5244 26.6779 46.1461 29.1193 46.1461C32.5905 46.1432 37 43.1867 37 37.1743Z" fill="white"/>
<path d="M27.8625 20.7495C27.65 20.7267 22.9898 20.1198 21.0859 15.7523C19.7229 12.6269 20.3409 8.88328 22.6614 6.28781C22.6311 6.67243 22.4959 8.83199 24.0548 10.681C25.5392 12.4389 27.4983 12.6525 27.9011 12.6896C27.8873 15.3734 27.8735 18.06 27.8625 20.7495Z" fill="white"/>
<path d="M29.4738 16.6982C29.4738 18.0629 29.4738 19.4247 29.4738 20.7865C29.9208 20.7352 33.7644 20.231 35.8476 16.6212C37.5417 13.6896 36.9098 10.7266 36.7636 10.1084C36.6974 10.5927 36.1869 13.9432 33.2843 15.7124C31.7391 16.6526 30.2188 16.721 29.4738 16.6982Z" fill="white"/>
<path d="M29.3993 15.1825C29.3993 11.5984 29.3993 8.01432 29.3993 4.43024C28.9165 4.43024 28.4364 4.43024 27.9535 4.43024C27.9535 6.68952 27.9535 8.9488 27.9535 11.2081C27.6224 11.1511 25.8262 10.8092 24.7832 9.12544C23.7899 7.51859 23.903 5.37042 24.8191 4.09121C24.9984 3.84049 25.1392 3.72083 25.473 3.38465C26.287 2.56983 27.272 1.53278 28.7013 0C30.3513 1.84332 31.7253 3.28778 32.6717 4.265C34.0127 5.64962 34.3797 5.97441 34.7466 6.7408C34.9094 7.08269 36.2173 9.94026 34.6004 12.5728C33.5105 14.3449 31.4991 15.3449 29.3993 15.1825Z" fill="white"/>
<path d="M14.7298 42.8935C13.838 43.4127 12.4671 44.0199 10.821 43.9291C9.30146 43.8468 8.6353 43.2312 7.00294 43.0042C6.01195 42.868 4.54475 42.8566 2.65363 43.5518C3.36383 44.3263 4.40987 45.1917 5.83303 45.6995C8.2747 46.5734 11.0907 46.145 13.125 44.5873C13.9068 43.9887 14.4243 43.3333 14.7298 42.8935Z" fill="white"/>
<path d="M16.409 39.1427C15.2529 41.1997 13.9453 41.8438 13.2489 42.0849C11.9991 42.5133 11.1293 42.8964 8.20588 41.8579C6.47166 41.2423 5.31827 41.1798 4.18139 41.4551C2.78301 41.7927 2.30954 42.0253 1.57181 42.4821C1.12036 41.8579 0.512008 40.8422 0.20095 39.4662C0.0578082 38.8392 0.00825818 38.2689 0 37.7894C0.388134 37.4461 1.70944 36.3651 3.69141 36.2998C5.25771 36.2488 6.28448 36.4701 7.85904 37.9766C9.05372 39.1229 9.6896 39.5087 10.6586 39.8492C11.878 40.2719 14.2344 40.3287 16.409 39.1427Z" fill="white"/>
<path d="M16.6292 37.2758C15.7814 37.9398 14.4903 38.6746 12.9185 38.6519C11.4376 38.632 10.4163 38.4249 8.88029 37.1056C7.82049 36.1949 7.45437 35.6728 6.323 35.2955C5.12556 34.8954 3.32528 34.4698 0.184418 35.9736C0.38812 35.0061 0.803783 33.6045 1.75623 32.2029C2.56553 31.0141 3.33629 30.4524 4.66035 29.2238C5.58527 28.367 6.88456 27.0846 8.35176 25.3596C10.119 27.3087 11.6523 28.7897 12.7561 29.8083C13.9728 30.929 14.6528 31.4737 15.3134 32.5434C16.3594 34.2344 16.5962 36.0161 16.6292 37.2758Z" fill="white"/>
</svg>
