<svg width="40" height="50" viewBox="0 0 40 50" fill="none" xmlns="http://www.w3.org/2000/svg">
<path d="M5.80394 43.825C5.26905 42.5363 4.23889 39.568 4.70774 35.7634C5.22943 31.5406 7.30297 28.7505 8.17464 27.7017C7.369 26.7146 6.0879 24.8979 5.32849 22.2793C4.54265 19.592 4.64831 17.2887 4.80019 15.9931C3.88229 17.0968 -0.317613 22.3684 0.0191715 30.2518C0.342749 37.9639 4.77378 42.7693 5.80394 43.825Z" fill="#F4AA1F"/>
<path d="M33.9023 44.1884C34.9193 41.9399 35.9891 38.4643 35.2164 34.5774C34.3646 30.293 31.6373 27.2973 29.3392 24.7814C27.9525 23.2596 27.5562 22.9511 25.5289 20.9837C22.5177 18.0702 20.1932 15.7737 19.2159 13.7583C18.6942 12.6821 16.832 8.8363 17.9876 4.32561C18.4961 2.33076 19.4272 0.877461 20.0942 0C24.9214 5.01798 28.7185 8.89114 31.2279 11.4344C33.9419 14.1833 35.1966 15.712 36.5306 17.6726C37.64 19.3041 40.0899 23.76 39.9975 29.6966C39.872 37.6074 35.1504 42.879 33.9023 44.1884Z" fill="#F49320"/>
<path d="M12.3746 27.5646C11.7736 28.113 7.84448 31.7942 7.95014 37.5868C8.04259 42.8036 11.3708 47.8422 16.4952 49.4737C22.4583 51.3726 28.3751 47.8696 30.8317 43.1875C31.0562 42.7556 33.1628 38.6014 31.7958 33.9879C31.1817 31.8971 29.7949 30.3615 27.061 27.3795C22.5573 22.4712 21.0121 22.1627 18.0273 18.0908C15.8217 15.0676 15.1217 13.1276 14.7849 11.8937C14.0915 9.39158 14.1245 7.19107 14.2566 5.74463C13.5302 6.21078 8.92087 9.2956 8.07561 15.1773C7.40864 19.784 9.44917 23.4378 10.0897 24.562C10.8689 25.9057 11.7208 26.8928 12.3746 27.5646Z" fill="#F3621E"/>
</svg>
