<svg width="40" height="50" viewBox="0 0 40 50" fill="none" xmlns="http://www.w3.org/2000/svg">
<path d="M18.0205 49.9109C17.5095 49.8561 6.29967 48.3964 1.72017 37.8906C-1.55848 30.3728 -0.0718017 21.3679 5.50987 15.1247C5.43687 16.0499 5.11166 21.2445 8.86154 25.6922C12.4322 29.9205 17.1445 30.4345 18.1134 30.5236C18.0803 36.9792 18.0471 43.4416 18.0205 49.9109Z" fill="#369A70"/>
<path d="M21.8965 40.1658C21.8965 43.4485 21.8965 46.7242 21.8965 50C22.9717 49.8766 32.217 48.6637 37.2279 39.9808C41.303 32.929 39.7831 25.8018 39.4314 24.3147C39.2721 25.4797 38.0442 33.5389 31.0622 37.7947C27.3455 40.0562 23.6885 40.2207 21.8965 40.1658Z" fill="#3EA87E"/>
<path d="M21.7173 36.52C21.7173 27.8988 21.7173 19.2777 21.7173 10.6565C20.5558 10.6565 19.401 10.6565 18.2395 10.6565C18.2395 16.091 18.2395 21.5255 18.2395 26.96C17.4431 26.8229 13.1225 26.0005 10.6137 21.9504C8.2244 18.0852 8.4965 12.918 10.7 9.84101C11.1314 9.23794 11.4699 8.95011 12.2729 8.14145C14.2308 6.18147 16.6002 3.68695 20.0382 0C24.0071 4.43394 27.3123 7.90844 29.5887 10.259C32.8143 13.5896 33.697 14.3709 34.5797 16.2144C34.9713 17.0367 38.1172 23.9104 34.228 30.2426C31.6064 34.5052 26.768 36.9106 21.7173 36.52Z" fill="#4DB480"/>
</svg>
